<?xml version="1.0" encoding="utf-8"?>
<!-- Generator: Adobe Illustrator 16.0.0, SVG Export Plug-In . SVG Version: 6.00 Build 0)  -->
<!DOCTYPE svg PUBLIC "-//W3C//DTD SVG 1.1//EN" "http://www.w3.org/Graphics/SVG/1.1/DTD/svg11.dtd">
<svg version="1.1" id="Layer_1" xmlns="http://www.w3.org/2000/svg" xmlns:xlink="http://www.w3.org/1999/xlink" x="0px" y="0px"
	 width="190px" height="100px" viewBox="0 0 190 100" enable-background="new 0 0 190 100" xml:space="preserve">
<g>
	<g>
		<g id="Logo_FullColor">
			<g id="Logo_Main_Possitive">
				<path id="Path_1" d="M55.396,63.751c0.014,1.036-0.112,2.069-0.376,3.071h-4.324c0.036-0.367,0.054-0.734,0.053-1.104
					c0.051-2.002-0.769-3.928-2.248-5.276c-1.817-1.627-3.797-3.063-5.908-4.282c-1.636-1.013-3.17-2.039-4.6-3.083
					c-1.368-0.98-2.533-2.219-3.431-3.642c-0.891-1.509-1.334-3.239-1.28-4.99c-0.072-1.799,0.411-3.576,1.382-5.092
					c0.899-1.321,2.161-2.355,3.633-2.978c1.52-0.649,3.156-0.978,4.808-0.967c1.351-0.065,2.702,0.138,3.973,0.6
					c0.843,0.365,1.648,0.812,2.405,1.332c0.42,0.243,0.758,0.426,1.02,0.553c0.236,0.117,0.495,0.179,0.758,0.182
					c0.553,0,0.936-0.767,1.15-2.3h1.172c-0.033,0.591-0.077,1.293-0.13,2.111c-0.053,0.818-0.086,1.9-0.105,3.233
					s-0.014,3.083-0.014,5.294h-1.181c-0.103-1.65-0.476-3.271-1.106-4.8c-0.576-1.466-1.519-2.761-2.737-3.76
					c-1.357-1.026-3.032-1.544-4.731-1.462c-1.685-0.059-3.326,0.541-4.576,1.672c-1.214,1.128-1.872,2.732-1.8,4.388
					c-0.05,1.412,0.373,2.8,1.2,3.946c0.894,1.141,1.982,2.113,3.216,2.873c1.342,0.856,2.797,1.77,4.366,2.741
					c1.67,1.018,3.285,2.125,4.836,3.316c1.324,1,2.457,2.229,3.345,3.631C55.021,60.406,55.447,62.068,55.396,63.751z"/>
				<path id="Path_2" fill="#E50E0E" d="M48.742,66.632v0.2H33.195v-0.2c0-0.294,0.017-0.587,0.053-0.879
					c0.486-4.267,4.339-7.331,8.605-6.845c3.927,0.447,6.894,3.771,6.895,7.724H48.742z"/>
				<path id="Path_3" d="M91.397,62.898V33.087c-0.683,0.211-1.383,0.361-2.093,0.45c-0.796,0.104-1.598,0.155-2.4,0.152
					c-0.863,0-1.756-0.041-2.676-0.13v0.906c0.962-0.119,1.923,0.226,2.591,0.928c0.525,0.86,0.767,1.863,0.691,2.868v6.429h-6.226
					v0.862c1.526,0.116,2.504,0.461,2.936,1.036c0.431,0.575,0.374,1.582-0.171,3.02l-4.78,12.486l-5.173-12.873
					c-0.421-0.786-0.602-1.679-0.52-2.567c0.13-0.493,0.552-0.853,1.059-0.906c0.635-0.108,1.278-0.159,1.922-0.152v-0.859H64.065
					v-7.206c-0.586,0.211-1.195,0.356-1.814,0.431c-0.664,0.086-1.352,0.144-2.074,0.174v6.6h-4.142v0.854h4.147v14.453
					c-0.031,1.236,0.092,2.473,0.368,3.678c0.228,0.891,0.681,1.707,1.316,2.371c0.486,0.461,1.059,0.82,1.684,1.059
					c0.778,0.269,1.597,0.393,2.419,0.367c1.509,0.112,2.975-0.535,3.907-1.728c0.893-1.255,1.478-2.704,1.706-4.228l-0.863-0.215
					c-0.279,1.293-0.84,2.508-1.642,3.559c-0.555,0.669-1.377,1.057-2.245,1.059c-0.766,0.039-1.509-0.266-2.029-0.828
					c-0.571-0.834-0.83-1.844-0.733-2.85v-16.7h2.632c0.46,0.029,0.91,0.154,1.319,0.367c0.743,0.494,1.31,1.212,1.617,2.05
					l7.83,18.857l-1.526,3.942c-0.329,0.968-0.876,1.847-1.6,2.565c-0.564,0.52-1.304,0.804-2.071,0.8h-0.106
					c-0.053-0.003-0.105-0.021-0.152-0.044c0.327-0.182,0.61-0.432,0.829-0.73c0.242-0.355,0.363-0.779,0.346-1.209
					c0.037-0.578-0.205-1.141-0.65-1.512c-0.441-0.35-0.991-0.531-1.554-0.52c-0.624-0.035-1.235,0.191-1.684,0.628
					c-0.414,0.448-0.63,1.047-0.6,1.655c-0.041,0.99,0.535,1.9,1.446,2.289c0.469,0.203,0.977,0.309,1.488,0.299
					c0.583-0.008,1.164-0.088,1.728-0.235c0.614-0.146,1.18-0.452,1.64-0.886c0.846-0.848,1.482-1.883,1.858-3.02l1.463-3.75
					l7.081-18.551c0.253-0.851,0.695-1.633,1.294-2.288c0.242-0.231,0.522-0.418,0.829-0.553v17.161
					c0.109,0.89-0.166,1.783-0.755,2.459c-0.743,0.5-1.635,0.729-2.527,0.646v0.905c0.49-0.025,1.238-0.063,2.245-0.105
					c1.006-0.045,2-0.066,2.98-0.064c1.006,0,2.006,0.021,3,0.064c0.993,0.041,1.73,0.077,2.212,0.105v-0.905
					c-0.891,0.082-1.782-0.146-2.524-0.646C91.566,64.689,91.29,63.793,91.397,62.898z"/>
				<path id="Path_4" d="M127.622,61.387c-0.552,1.381-1.519,2.557-2.765,3.365c-1.092,0.635-2.334,0.963-3.594,0.95
					c-1.148-0.021-2.262-0.407-3.174-1.104c-1.104-0.832-1.96-1.94-2.486-3.217c-0.67-1.596-0.994-3.316-0.951-5.048
					c0-0.517,0.015-1.033,0.045-1.554c0.021-0.435,0.058-0.828,0.1-1.207h13.5c0-3.25-0.713-5.643-2.137-7.183
					c-1.553-1.592-3.717-2.434-5.936-2.307c-1.822-0.03-3.608,0.495-5.123,1.506c-1.516,1.052-2.693,2.515-3.4,4.216
					c-0.459,1.059-0.78,2.174-0.957,3.316c-0.066-3.018-0.777-5.259-2.133-6.725c-1.553-1.59-3.717-2.432-5.938-2.307
					c-1.826-0.037-3.622,0.486-5.146,1.5c-1.518,1.055-2.701,2.523-3.41,4.23c-0.86,2.064-1.276,4.286-1.219,6.521
					c-0.039,1.997,0.367,3.979,1.186,5.8c0.735,1.616,1.92,2.986,3.412,3.946c1.602,0.985,3.454,1.481,5.333,1.427
					c1.313,0.026,2.618-0.263,3.8-0.844c1.053-0.525,1.979-1.268,2.723-2.177c0.678-0.821,1.205-1.757,1.553-2.761l-0.862-0.345
					c-0.97,2.657-3.53,4.396-6.358,4.315c-1.147-0.021-2.262-0.408-3.175-1.104c-1.101-0.832-1.96-1.941-2.487-3.218
					c-0.67-1.597-0.992-3.315-0.947-5.048c0-0.52,0.015-1.033,0.039-1.555c0.025-0.434,0.061-0.827,0.105-1.207h13.416
					c-0.123,0.916-0.183,1.841-0.18,2.765c-0.04,1.997,0.365,3.979,1.186,5.801c0.733,1.616,1.918,2.987,3.412,3.945
					c1.6,0.983,3.453,1.479,5.331,1.426c1.316,0.028,2.62-0.261,3.8-0.843c1.051-0.523,1.979-1.268,2.721-2.178
					c0.683-0.818,1.207-1.756,1.557-2.764L127.622,61.387z M106.605,52.758H97.17c0.045-2.084,0.668-4.115,1.801-5.866
					c0.782-1.193,2.094-1.933,3.521-1.987c0.921-0.025,1.804,0.373,2.395,1.08c0.676,0.834,1.143,1.817,1.359,2.868
					c0.297,1.284,0.413,2.602,0.346,3.918L106.605,52.758z M116.559,46.892c0.781-1.192,2.092-1.932,3.519-1.987
					c0.923-0.027,1.808,0.371,2.397,1.08c0.676,0.834,1.145,1.817,1.36,2.868c0.291,1.284,0.403,2.603,0.332,3.918h-9.429
					c0.049-2.09,0.675-4.125,1.809-5.88L116.559,46.892z"/>
				<path id="Path_5" d="M155.938,61.337c-0.278,1.292-0.84,2.509-1.643,3.56c-0.555,0.668-1.377,1.057-2.245,1.06
					c-0.766,0.038-1.509-0.267-2.028-0.829c-0.568-0.834-0.83-1.843-0.731-2.852V45.589h6.392v-0.862h-6.377v-7.2
					c-0.588,0.211-1.193,0.356-1.813,0.431c-0.668,0.087-1.358,0.145-2.074,0.174v6.6h-2.979c0-0.21,0.024-0.412,0.039-0.605h-1
					c-0.199,1.813-0.773,2.331-1.726,1.553c-0.545-0.417-1.14-0.763-1.771-1.033c-0.928-0.396-1.931-0.585-2.938-0.553
					c-1.078-0.008-2.146,0.189-3.15,0.58c-0.945,0.362-1.764,0.992-2.354,1.813c-1.16,1.896-1.183,4.277-0.056,6.193
					c0.601,0.871,1.35,1.631,2.211,2.243c0.906,0.663,1.881,1.325,2.918,1.983c1.229,0.76,2.396,1.611,3.494,2.548
					c0.908,0.772,1.416,1.915,1.383,3.106c0.134,1.209-0.346,2.407-1.274,3.191c-0.737,0.564-1.639,0.884-2.567,0.906
					c-1.207,0.07-2.401-0.287-3.369-1.016c-0.853-0.75-1.467-1.73-1.77-2.826c-0.41-1.389-0.697-2.809-0.861-4.246h-0.994
					c0,2.188-0.014,3.941-0.043,5.264c-0.028,1.321-0.072,2.441-0.131,3.368h0.994c0.03-0.521,0.213-1.022,0.521-1.448
					c0.185-0.215,0.506-0.24,0.722-0.061c0.021,0.02,0.04,0.037,0.059,0.061c0.283,0.229,0.58,0.446,0.886,0.646
					c0.284,0.19,0.58,0.365,0.886,0.519c0.523,0.203,1.064,0.354,1.62,0.453c0.592,0.104,1.19,0.153,1.792,0.151
					c1.249,0.014,2.488-0.224,3.646-0.69c1.063-0.425,1.994-1.125,2.699-2.026c0.713-0.957,1.077-2.125,1.036-3.315
					c0.067-1.619-0.562-3.19-1.729-4.316c-1.297-1.21-2.701-2.299-4.197-3.252c-0.979-0.632-1.887-1.215-2.723-1.749
					c-0.762-0.467-1.443-1.048-2.027-1.724c-0.518-0.62-0.793-1.404-0.777-2.21c-0.063-0.941,0.313-1.86,1.018-2.487
					c0.713-0.574,1.607-0.874,2.521-0.843c1.133-0.05,2.246,0.293,3.152,0.973c0.813,0.658,1.445,1.515,1.836,2.487
					c0.415,0.998,0.712,2.041,0.885,3.106h0.993c0-1.872,0.017-3.358,0.044-4.463c0-0.5,0.025-0.967,0.047-1.4h3.018v14.454
					c-0.029,1.233,0.094,2.467,0.369,3.67c0.229,0.887,0.688,1.697,1.321,2.355c0.487,0.458,1.063,0.813,1.688,1.051
					c0.777,0.269,1.598,0.393,2.42,0.366c1.508,0.111,2.974-0.534,3.906-1.727c0.894-1.257,1.479-2.703,1.707-4.228L155.938,61.337z
					"/>
			</g>
		</g>
	</g>
</g>
</svg>
